<svg xmlns="http://www.w3.org/2000/svg" shape-rendering="geometricPrecision" text-rendering="geometricPrecision" image-rendering="optimizeQuality" fill-rule="evenodd" clip-rule="evenodd" viewBox="0 0 512 508.135"><path fill-rule="nonzero" d="M59.373 361.137a7.834 7.834 0 01-7.833 7.833 7.834 7.834 0 01-7.833-7.833V311.54c0-7.276 2.99-13.912 7.81-18.736l-.016-.016c4.803-4.803 11.443-7.791 18.75-7.791h178.125v-27.839c-32.381-1.97-61.529-15.911-83.072-37.454-23.289-23.289-37.696-55.465-37.696-91.003s14.407-67.714 37.696-91.005C188.593 14.407 220.769 0 256.307 0c35.539 0 67.715 14.407 91.004 37.696 23.289 23.289 37.696 55.465 37.696 91.005 0 35.538-14.407 67.714-37.696 91.003-21.589 21.587-50.811 35.541-83.269 37.465v27.828h178.124c7.273 0 13.901 2.984 18.722 7.791l.048.048c4.797 4.82 7.775 11.444 7.775 18.704v49.526a7.834 7.834 0 01-15.666 0V311.54c0-3.002-1.216-5.722-3.172-7.676l-.03-.03a10.825 10.825 0 00-7.677-3.172H264.042v60.475a7.834 7.834 0 01-15.666 0v-60.475H70.251c-2.982 0-5.701 1.229-7.675 3.202h-.03a10.828 10.828 0 00-3.173 7.676v49.597zm168.585-193.48a9.41 9.41 0 01-.653 1.759 5.391 5.391 0 01-.926 1.333 4.154 4.154 0 01-.992.716c-.366.198-.8.377-1.281.527l-12.621 3.847a.695.695 0 01-.814-.987c.395-.757.775-1.397 1.123-1.918.367-.548.708-.972 1.03-1.284.339-.318.791-.629 1.347-.926l.697-.346-.453-.36a6.885 6.885 0 01-1.001-.999 4.109 4.109 0 01-.661-1.063l-.016-.043a2.97 2.97 0 01-.228-1.116c0-.301.05-.633.142-.978l.014-.043c.089-.327.216-.663.37-.997l.592-1.045.724-1.003c1.312-1.746 2.631-3.065 3.941-3.948 1.376-.927 2.756-1.389 4.137-1.389.452 0 .875.082 1.257.235a2.99 2.99 0 011.031.704l.048.053c.263.311.468.664.601 1.048.137.396.208.826.208 1.29l-.076.974c-.05.328-.128.628-.235.891l-.444.915-.69 1.2a.697.697 0 01-.907.265c-.937-.464-1.726-.816-2.357-1.045-.575-.208-1.005-.316-1.278-.316-.303 0-.594.039-.877.108-.29.071-.594.187-.903.34-.263.163-.509.304-.749.494l.303.268c.444.365 1.116.806 2.005 1.314l.035.022c.863.488 1.626.862 2.265 1.116l.033.012c.583.228 1.038.342 1.351.342.478 0 1.834-.278 4.071-.823a.694.694 0 01.839.511.758.758 0 01-.002.345zm.144-37.474c0 1.743-.11 3.439-.322 5.078a32.32 32.32 0 01-.949 4.675l-.014.045c-.429 1.476-1.055 3.189-1.86 5.124-.803 1.935-1.806 4.126-3.003 6.559a.698.698 0 01-.885.34l-3.55-1.444a.698.698 0 01-.416-.812c.473-2.475.83-4.722 1.069-6.727.232-1.988.353-3.771.353-5.335 0-1.227-.05-2.694-.146-4.383a231.288 231.288 0 00-.435-6.065l-.66-6.889a276.137 276.137 0 00-.814-6.816 156.43 156.43 0 00-1.161-7.44 264.529 264.529 0 00-1.721-8.685l-.528-2.821c-.122-.795-.188-1.417-.188-1.849 0-.659.163-1.552.487-2.663.311-1.058.775-2.333 1.39-3.804l.016-.034a93.02 93.02 0 012.176-4.845 179.666 179.666 0 012.926-5.783.696.696 0 011.309.235l3.562 20.786a333.51 333.51 0 011.659 10.967c.466 3.482.832 6.708 1.095 9.659.199 2.209.352 4.414.455 6.599.103 2.223.155 4.335.155 6.328zm11.454 34.287v-16.479a.7.7 0 01.699-.7h16.48c.384 0 .699.315.699.7v16.479c0 .386-.315.7-.699.7h-16.48a.7.7 0 01-.699-.7zm65.154-16.5h-26.643c-2.742 0-4.882-.603-6.388-1.799-.937-.747-1.644-1.737-2.112-2.94-.453-1.172-.683-2.559-.683-4.143l.077-2.741.213-2.915.333-3.049.472-3.083a.7.7 0 01.689-.578l2.375-.116a.701.701 0 01.709.539c.137.6.355 1.118.652 1.545l.018.03c.288.411.649.749 1.085 1.008.48.274 1.015.491 1.596.63.578.14 1.232.215 1.945.215h19.31c-.428-2.516-.992-4.806-1.692-6.859-.76-2.247-1.687-4.213-2.765-5.882a21.9 21.9 0 00-3.205-3.88 27.26 27.26 0 00-4.283-3.326.699.699 0 01-.295-.78l4.262-18.312a.698.698 0 01.835-.519l.262.121c2.577 1.945 4.79 4.171 6.62 6.672a32.105 32.105 0 014.364 8.351c.983 2.805 1.725 6.076 2.214 9.793.49 3.718.736 7.869.736 12.43v18.888c0 .385-.315.7-.701.7zm31.526-99.198c-20.454-20.454-48.715-33.106-79.929-33.106-31.215 0-59.474 12.652-79.928 33.106-20.451 20.453-33.106 48.716-33.106 79.929 0 31.214 12.653 59.474 33.106 79.927 20.454 20.453 48.713 33.106 79.928 33.106 31.212 0 59.475-12.654 79.929-33.106 20.453-20.453 33.105-48.713 33.105-79.927 0-31.215-12.652-59.476-33.105-79.929zM102.777 398.271v98.157c0 6.439-5.273 11.707-11.706 11.707H11.707C5.273 508.135 0 502.862 0 496.428v-98.157c0-6.433 5.268-11.706 11.707-11.706h79.364c6.439 0 11.706 5.267 11.706 11.706zm204.82 0v98.157c0 6.439-5.273 11.707-11.706 11.707h-79.364c-6.434 0-11.707-5.273-11.707-11.707v-98.157c0-6.433 5.268-11.706 11.707-11.706h79.364c6.439 0 11.706 5.267 11.706 11.706zm204.403 0v98.157c0 6.439-5.273 11.707-11.707 11.707h-79.364c-6.434 0-11.706-5.273-11.706-11.707v-98.157c0-6.433 5.267-11.706 11.706-11.706h79.364c6.439 0 11.707 5.267 11.707 11.706z"/></svg>