<svg xmlns="http://www.w3.org/2000/svg" shape-rendering="geometricPrecision" text-rendering="geometricPrecision" image-rendering="optimizeQuality" fill-rule="evenodd" clip-rule="evenodd" viewBox="0 0 512 512"><path fill-rule="nonzero" d="M278.126 45.654c-5.04-5.009-8.513-9.204-11.971-13.399-.804-.968-1.605-1.939-2.429-2.92v49.852a7.853 7.853 0 01-15.703 0V29.695l-15.689 17.066a1.883 1.883 0 01-.554.414 8.59 8.59 0 01-5.224.846 8.493 8.493 0 01-4.717-2.367 8.528 8.528 0 01-2.552-6.023 8.571 8.571 0 012.459-6.1c8.959-9.881 18.547-21.422 27.83-30.718 1.905-1.89 4.132-2.829 6.376-2.813 2.212.015 4.38.923 6.224 2.705 8.206 7.591 20.467 22.02 28.089 30.826a8.54 8.54 0 012.459 5.992 8.618 8.618 0 01-2.352 5.932l-.153.154a8.554 8.554 0 01-6.054 2.505 8.565 8.565 0 01-5.932-2.368l-.107-.092zM223.248 294.17a10.278 10.278 0 01-.709 1.914 5.885 5.885 0 01-1.011 1.455 4.495 4.495 0 01-1.082.779c-.4.217-.87.412-1.397.576l-13.756 4.193a.76.76 0 01-.944-.505.77.77 0 01.055-.57c.432-.826.847-1.524 1.226-2.09.4-.6.77-1.063 1.122-1.402.37-.344.863-.685 1.468-1.008l.759-.378-.494-.391a7.502 7.502 0 01-1.089-1.09 4.485 4.485 0 01-.722-1.159l-.019-.047a3.283 3.283 0 01-.246-1.216c0-.328.054-.691.156-1.066l.013-.047c.098-.357.237-.722.404-1.087l.645-1.14.789-1.092c1.429-1.903 2.868-3.342 4.297-4.305 1.498-1.011 3.003-1.514 4.51-1.514.491 0 .952.091 1.368.257.424.169.8.432 1.126.767l.052.059c.287.339.509.72.655 1.14.15.432.228.902.228 1.408l-.083 1.06a4.488 4.488 0 01-.258.972l-.485.998-.751 1.309a.763.763 0 01-.989.289c-1.022-.507-1.881-.889-2.568-1.141-.628-.225-1.096-.344-1.396-.344a3.99 3.99 0 00-.955.119 4.83 4.83 0 00-.983.37c-.287.178-.556.331-.817.539l.332.292c.483.396 1.216.878 2.184 1.433l.037.022c.941.532 1.772.941 2.472 1.217l.033.014c.637.249 1.131.371 1.474.371.52 0 2-.302 4.438-.896a.759.759 0 01.911.935zm.159-40.851c0 1.9-.12 3.747-.352 5.534a35.156 35.156 0 01-1.035 5.097l-.015.048c-.468 1.609-1.149 3.479-2.027 5.585-.878 2.113-1.97 4.499-3.273 7.15a.766.766 0 01-.967.373l-3.867-1.574a.766.766 0 01-.456-.887c.515-2.697.907-5.147 1.165-7.333.253-2.166.387-4.11.387-5.815 0-1.339-.056-2.937-.159-4.779-.1-1.855-.267-4.071-.474-6.611l-.721-7.509c-.266-2.505-.566-4.99-.888-7.43a167.85 167.85 0 00-1.265-8.11 292.467 292.467 0 00-1.875-9.468l-.576-3.074c-.135-.866-.207-1.545-.207-2.016 0-.72.18-1.692.533-2.903.339-1.153.846-2.542 1.516-4.147l.017-.037a99.512 99.512 0 012.373-5.281 193.766 193.766 0 013.189-6.304.764.764 0 011.027-.319.754.754 0 01.4.574l3.882 22.659c.713 4.26 1.311 8.242 1.809 11.956.507 3.795.907 7.311 1.194 10.529.215 2.407.383 4.811.494 7.192.113 2.426.171 4.727.171 6.9zm12.485 37.376v-17.964c0-.42.341-.763.761-.763h17.964c.42 0 .763.343.763.763v17.964c0 .42-.343.762-.763.762h-17.964a.762.762 0 01-.761-.762zm71.024-17.988H277.87c-2.988 0-5.321-.656-6.963-1.961-1.02-.815-1.792-1.892-2.299-3.204-.496-1.276-.746-2.79-.746-4.516l.083-2.988.233-3.177.363-3.325.515-3.36a.763.763 0 01.75-.63l2.588-.126a.763.763 0 01.774.587c.15.652.388 1.218.711 1.685l.02.031a3.81 3.81 0 001.181 1.1 6.764 6.764 0 001.74.687 9.102 9.102 0 002.12.233h21.05c-.464-2.742-1.081-5.237-1.844-7.476-.827-2.449-1.84-4.593-3.014-6.413a23.822 23.822 0 00-3.493-4.228c-1.357-1.304-2.916-2.516-4.668-3.627a.762.762 0 01-.322-.852l4.644-19.959a.764.764 0 01.912-.567l.285.133c2.809 2.118 5.223 4.547 7.215 7.273 1.994 2.727 3.588 5.767 4.758 9.103 1.072 3.058 1.881 6.624 2.413 10.677.535 4.052.803 8.575.803 13.548v20.591c0 .42-.343.761-.763.761zm-50.918-153.304c37.716 0 71.866 15.29 96.586 40.008 24.718 24.719 40.008 58.867 40.008 96.585 0 37.716-15.29 71.867-40.008 96.586-24.72 24.718-58.87 40.008-96.586 40.008-37.718 0-71.866-15.29-96.585-40.008-24.718-24.719-40.008-58.87-40.008-96.586 0-37.718 15.29-71.866 40.008-96.585 24.719-24.718 58.867-40.008 96.585-40.008zm84.259 52.334c-21.562-21.561-51.355-34.898-84.259-34.898-32.906 0-62.697 13.337-84.259 34.898-21.561 21.563-34.899 51.353-34.899 84.259 0 32.905 13.338 62.697 34.899 84.26 21.562 21.561 51.353 34.898 84.259 34.898 32.904 0 62.697-13.337 84.259-34.898 21.562-21.563 34.899-51.355 34.899-84.26 0-32.906-13.337-62.696-34.899-84.259zm-239.09-81.484l35.252 35.254a7.852 7.852 0 010 11.098c-3.063 3.062-8.037 3.062-11.099 0l-35.002-35.003.975 23.171c.011.228-.022.456-.098.683a8.59 8.59 0 01-3.097 4.294 8.506 8.506 0 01-5.008 1.662 8.528 8.528 0 01-6.063-2.457 8.563 8.563 0 01-2.576-6.052c-.653-13.32-2.033-28.261-2.044-41.398.011-2.684.924-4.923 2.522-6.498 1.575-1.553 3.749-2.444 6.313-2.488 11.169-.435 30.044 1.097 41.66 1.934a8.55 8.55 0 015.976 2.5 8.608 8.608 0 012.531 5.855v.219a8.56 8.56 0 01-2.509 6.052 8.568 8.568 0 01-5.869 2.52l-.141.011c-7.105.022-12.528-.489-17.939-1.011l-3.784-.346zM29.335 248.272h49.852a7.853 7.853 0 010 15.704H29.693l17.068 15.69c.17.154.307.337.414.554a8.58 8.58 0 01.846 5.224 8.491 8.491 0 01-2.366 4.717 8.543 8.543 0 01-6.024 2.552 8.58 8.58 0 01-6.1-2.459c-9.881-8.959-21.422-18.549-30.718-27.83-1.89-1.905-2.827-4.134-2.813-6.378.015-2.212.923-4.378 2.705-6.222 7.591-8.206 22.02-20.469 30.826-28.091a8.542 8.542 0 015.992-2.458c2.137 0 4.272.783 5.932 2.351l.154.153a8.557 8.557 0 012.505 6.054 8.568 8.568 0 01-2.366 5.932l-.093.108c-5.01 5.041-9.205 8.514-13.4 11.97l-2.92 2.429zm60.918 162.563l35.254-35.255a7.852 7.852 0 0111.098 0 7.853 7.853 0 010 11.099l-35.001 35.002 23.169-.974c.228-.011.456.022.685.098a8.59 8.59 0 014.292 3.095 8.498 8.498 0 011.662 5.01 8.53 8.53 0 01-2.455 6.063 8.58 8.58 0 01-6.054 2.576c-13.32.651-28.261 2.031-41.398 2.042-2.684-.011-4.923-.924-6.498-2.52-1.553-1.575-2.444-3.749-2.488-6.313-.434-11.171 1.097-30.044 1.934-41.66a8.547 8.547 0 012.5-5.976 8.61 8.61 0 015.855-2.533h.219c2.347 0 4.499.958 6.052 2.511a8.57 8.57 0 012.522 5.867l.009.141c.022 7.107-.489 12.53-1.009 17.939l-.348 3.788zm158.021 71.832v-49.856a7.853 7.853 0 017.852-7.852 7.852 7.852 0 017.85 7.852v49.494l15.69-17.067c.154-.169.339-.308.554-.415a8.58 8.58 0 015.224-.844 8.491 8.491 0 014.717 2.366 8.526 8.526 0 012.552 6.022 8.581 8.581 0 01-2.459 6.102c-8.959 9.881-18.547 21.421-27.83 30.718-1.905 1.89-4.132 2.827-6.376 2.813-2.214-.017-4.38-.923-6.224-2.705-8.206-7.593-20.469-22.02-28.091-30.826a8.554 8.554 0 01-2.458-5.992c0-2.137.785-4.274 2.351-5.932l.153-.154a8.553 8.553 0 016.056-2.505c2.135 0 4.271.783 5.93 2.366l.109.093c5.04 5.01 8.513 9.205 11.969 13.398.804.968 1.607 1.942 2.431 2.924zm162.561-60.92l-35.254-35.255c-3.062-3.062-3.062-8.035 0-11.099 3.063-3.062 8.037-3.062 11.099 0l35.002 35.003-.975-23.169a1.86 1.86 0 01.098-.685 8.581 8.581 0 013.097-4.292 8.478 8.478 0 015.008-1.662 8.522 8.522 0 016.063 2.455 8.567 8.567 0 012.576 6.052c.653 13.322 2.033 28.263 2.044 41.398-.011 2.685-.924 4.923-2.522 6.499-1.575 1.553-3.749 2.445-6.313 2.488-11.169.435-30.044-1.098-41.66-1.935a8.542 8.542 0 01-5.976-2.5 8.6 8.6 0 01-2.531-5.855v-.217c0-2.347.956-4.499 2.509-6.052a8.561 8.561 0 015.869-2.522l.141-.011c7.105-.022 12.528.489 17.939 1.011 1.253.117 2.509.237 3.786.348zm71.828-158.021h-49.852a7.854 7.854 0 01-7.852-7.852 7.853 7.853 0 017.852-7.851h49.494l-17.067-15.691a1.847 1.847 0 01-.415-.552 8.583 8.583 0 01-.844-5.224 8.497 8.497 0 012.366-4.719 8.533 8.533 0 016.024-2.55 8.563 8.563 0 016.1 2.459c9.881 8.959 21.421 18.547 30.718 27.828 1.89 1.905 2.827 4.134 2.813 6.378-.017 2.212-.923 4.378-2.705 6.222-7.591 8.208-22.02 20.469-30.826 28.091a8.546 8.546 0 01-5.992 2.459 8.61 8.61 0 01-5.932-2.352l-.154-.153a8.545 8.545 0 01-2.505-6.054 8.56 8.56 0 012.366-5.932l.093-.107c5.01-5.042 9.205-8.513 13.4-11.971.968-.804 1.939-1.605 2.918-2.429zm-60.916-162.563l-35.254 35.256a7.852 7.852 0 01-11.098 0c-3.062-3.065-3.062-8.037 0-11.099l35-35.002-23.168.974a1.889 1.889 0 01-.685-.099 8.584 8.584 0 01-4.292-3.095 8.498 8.498 0 01-1.662-5.01 8.532 8.532 0 012.455-6.063 8.574 8.574 0 016.052-2.575c13.322-.652 28.263-2.032 41.4-2.043 2.683.011 4.921.924 6.497 2.52 1.554 1.576 2.445 3.749 2.488 6.313.435 11.171-1.096 30.044-1.933 41.66a8.556 8.556 0 01-2.5 5.976 8.611 8.611 0 01-5.857 2.533h-.217a8.555 8.555 0 01-6.052-2.511 8.57 8.57 0 01-2.522-5.867l-.011-.141c-.02-7.107.489-12.53 1.011-17.939.117-1.253.237-2.511.348-3.788z"/></svg>