<svg xmlns="http://www.w3.org/2000/svg" shape-rendering="geometricPrecision" text-rendering="geometricPrecision" image-rendering="optimizeQuality" fill-rule="evenodd" clip-rule="evenodd" viewBox="0 0 512 478.126"><path d="M272.472 109.892l-5.627-25.735c24.103 4.483 62.734 53.511 75.219 75.805 6.372 11.377 11.951 23.911 16.521 37.924 9.101 33.913.334 65.641-36.455 73.03-23.051 4.631-66.039 4.957-90.282 3.704-26.062-1.348-66.392-1.308-76.928-28.065-17.003-43.191 14.151-94.645 42.555-126.138 3.739-4.145 7.603-8.007 11.602-11.571 7.714-6.786 15.228-13.857 24.024-19.257 3.644-1.822 6.078-3.465 10.105-4.885l.024-.008.621-.215-12.846 23.923 14.734-19.536 3.925-5.201h9.83l5.768 11.654 7.21 14.571zm-9.662 235.539c0 3.76-3.05 6.81-6.81 6.81s-6.81-3.05-6.81-6.81v-52.798c4.365.065 8.941.086 13.62.057v52.741zM68.519 219.466a6.81 6.81 0 01-6.809 6.81 6.81 6.81 0 01-6.809-6.81v-51.301c0-6.346 2.596-12.12 6.777-16.3 4.177-4.178 9.948-6.776 16.298-6.776h79.18a212.187 212.187 0 00-7.707 13.619H77.976c-2.588 0-4.953 1.068-6.67 2.785-1.719 1.719-2.787 4.083-2.787 6.672v51.301zm285.02-74.377h80.483c6.32 0 12.084 2.595 16.276 6.774l.041.042c4.17 4.19 6.759 9.945 6.759 16.26v51.239a6.81 6.81 0 01-13.619 0v-51.239a9.412 9.412 0 00-2.757-6.674l-.026-.026a9.412 9.412 0 00-6.674-2.757h-72.811a213.532 213.532 0 00-3.898-7.295 146.643 146.643 0 00-3.774-6.324zM119.337 259.928v77.15c0 4.675-1.915 8.925-4.988 11.997-3.076 3.078-7.331 4.989-11.999 4.989H16.987c-4.669 0-8.919-1.916-11.995-4.992C1.917 345.997 0 341.747 0 337.078v-77.15c0-4.667 1.912-8.922 4.989-11.999 3.072-3.072 7.322-4.987 11.998-4.987h85.363c4.66 0 8.901 1.912 11.976 4.984l.027.027c3.072 3.075 4.984 7.316 4.984 11.975zm-13.619 77.15v-77.15a3.39 3.39 0 00-.981-2.386 3.39 3.39 0 00-2.387-.981H16.987c-.915 0-1.756.383-2.37.997a3.358 3.358 0 00-.998 2.37v77.15c0 .909.386 1.751 1.002 2.366a3.36 3.36 0 002.366 1.002h85.363a3.36 3.36 0 002.371-.999 3.351 3.351 0 00.997-2.369zm218.684 48.405v77.149c0 4.262-1.748 8.14-4.55 10.942-2.807 2.807-6.687 4.552-10.944 4.552H203.096c-4.258 0-8.135-1.75-10.94-4.555l-.337-.371c-2.609-2.78-4.218-6.508-4.218-10.568v-77.149c0-4.258 1.745-8.138 4.552-10.944 2.805-2.805 6.678-4.55 10.943-4.55h105.812c4.25 0 8.12 1.743 10.926 4.547l.021.022c2.804 2.804 4.547 6.675 4.547 10.925zM512 259.928v85.332c0 4.655-1.918 8.897-5.001 11.983l.014.014c-3.078 3.078-7.329 4.989-12 4.989h-85.36c-4.671 0-8.921-1.916-11.996-4.992l-.442-.485c-2.816-3.041-4.55-7.097-4.55-11.509v-85.332c0-4.67 1.912-8.922 4.989-11.999 3.073-3.074 7.322-4.987 11.999-4.987h85.36c4.66 0 8.901 1.912 11.976 4.984l.027.027c3.072 3.075 4.984 7.316 4.984 11.975zm-13.619 85.332v-85.332a3.39 3.39 0 00-.981-2.386 3.39 3.39 0 00-2.387-.981h-85.36c-.917 0-1.757.383-2.371.997a3.358 3.358 0 00-.998 2.37v85.332c0 .825.298 1.582.786 2.16l.215.206a3.36 3.36 0 002.368 1.001h85.36c.914 0 1.756-.383 2.371-.998h.026a3.341 3.341 0 00.971-2.369zM233.499 219.134a7.02 7.02 0 01-.487 1.315 4.062 4.062 0 01-.694 1 3.094 3.094 0 01-.743.535 5.41 5.41 0 01-.96.395l-9.45 2.881a.521.521 0 01-.611-.739c.295-.567.58-1.048.841-1.435.275-.412.53-.73.771-.963.255-.237.592-.47 1.009-.694l.523-.258-.34-.269a5.196 5.196 0 01-.75-.75 3.11 3.11 0 01-.496-.796l-.011-.031a2.246 2.246 0 01-.17-.836c0-.225.037-.474.107-.734l.009-.031c.068-.246.163-.496.277-.746l.445-.784.541-.749c.983-1.309 1.97-2.297 2.952-2.958 1.029-.694 2.063-1.04 3.098-1.04.339 0 .654.061.942.176.289.115.548.296.771.527l.035.04c.198.233.351.496.452.784.102.296.156.619.156.967l-.058.728a3.025 3.025 0 01-.176.669l-.334.684-.516.9a.52.52 0 01-.678.198 18.535 18.535 0 00-1.765-.783c-.431-.157-.753-.237-.958-.237-.226 0-.446.029-.657.08a3.45 3.45 0 00-.676.255c-.197.124-.381.227-.561.37l.228.202c.332.272.836.603 1.502.985l.025.015c.645.365 1.217.646 1.697.836l.024.01c.436.169.776.254 1.011.254.358 0 1.374-.207 3.049-.616a.523.523 0 01.626.643zm.11-28.065c0 1.305-.084 2.575-.241 3.802a24.141 24.141 0 01-.711 3.501l-.011.034c-.321 1.104-.79 2.389-1.392 3.837a87.928 87.928 0 01-2.249 4.912.527.527 0 01-.665.255l-2.656-1.081a.524.524 0 01-.313-.609 72.78 72.78 0 00.799-5.038c.175-1.488.266-2.824.266-3.995 0-.919-.038-2.018-.109-3.283a163.372 163.372 0 00-.327-4.542l-.492-5.16c-.185-1.72-.39-3.428-.611-5.103a116.364 116.364 0 00-.87-5.572 194.764 194.764 0 00-1.288-6.505l-.395-2.113c-.093-.595-.142-1.061-.142-1.384 0-.495.122-1.162.364-1.994.234-.793.582-1.748 1.042-2.85l.012-.026a68.028 68.028 0 011.631-3.627 133.793 133.793 0 012.191-4.332.523.523 0 01.98.176l2.668 15.566c.49 2.927.901 5.664 1.242 8.214a167.5 167.5 0 01.82 7.235c.148 1.653.262 3.305.339 4.942.078 1.665.118 3.245.118 4.74zm8.577 25.677v-12.342c0-.288.235-.523.524-.523h12.341c.289 0 .524.235.524.523v12.342a.525.525 0 01-.524.524H242.71a.525.525 0 01-.524-.524zm48.796-12.358h-19.955c-2.053 0-3.655-.449-4.783-1.347-.702-.56-1.232-1.3-1.582-2.201-.339-.878-.511-1.916-.511-3.102l.057-2.054.161-2.182.249-2.285.352-2.308a.528.528 0 01.516-.433l1.779-.087a.527.527 0 01.532.404c.102.448.266.837.488 1.157l.014.022c.215.309.485.561.811.756.361.204.761.366 1.197.471.432.105.922.161 1.456.161h14.461c-.32-1.884-.742-3.6-1.266-5.136-.569-1.685-1.264-3.156-2.071-4.406a16.408 16.408 0 00-2.402-2.906 20.314 20.314 0 00-3.207-2.491.526.526 0 01-.221-.584l3.192-13.713a.523.523 0 01.626-.39l.196.091c1.93 1.456 3.589 3.124 4.958 4.997a23.976 23.976 0 013.267 6.253c.737 2.102 1.294 4.552 1.659 7.335.367 2.785.551 5.893.551 9.308v14.146a.525.525 0 01-.524.524zm-55.46-157.017c-4.264-12.576-8.033-25.218-11.302-38.084 3.219-3.522 8.341-5.525 12.836-6.772 18.723-5.145 48.797-2.119 59.128 6.566l-12.391 29.464c6.664-8.756 8.903-12.35 12.88-17.228a38.158 38.158 0 014.724 3.665c3.526 3.189 6.672 6.716 7.31 11.631.413 3.188-.499 6.426-3.335 9.738L276.94 79.466c-3.66-.601-7.236-1.479-10.706-2.712 1.654-3.937 3.482-7.809 5.17-11.764l-10.352 11.179c-10.783-2.274-19.454-.917-27.534 3.356L204.684 44.92c-1.713-2.063-2.493-4.126-2.487-6.191.148-5.604 5.108-9.994 9.355-12.989 3.078-2.092 6.232-3.896 9.674-5.327l14.296 26.958z"/></svg>