<svg xmlns="http://www.w3.org/2000/svg" shape-rendering="geometricPrecision" text-rendering="geometricPrecision" image-rendering="optimizeQuality" fill-rule="evenodd" clip-rule="evenodd" viewBox="0 0 512 496.954"><path fill-rule="nonzero" d="M411.653 450.341c-13.994 0-26.665-5.674-35.836-14.844l-.423-.46c-8.92-9.135-14.421-21.621-14.421-35.376 0-9.637 2.7-18.653 7.384-26.328l-21.96-18.668c-22.994 19.216-52.604 30.783-84.913 30.783-19.499 0-38.014-4.214-54.684-11.777a7.688 7.688 0 01-.492 1.622l-11.945 27.727a51.87 51.87 0 013.285 2.489c10.195 8.392 17.192 20.681 18.572 34.87l.003.039c1.364 14.151-3.138 27.531-11.52 37.717-8.392 10.196-20.683 17.197-34.874 18.574-14.167 1.375-27.559-3.127-37.752-11.517-10.198-8.393-17.197-20.683-18.574-34.874-1.373-14.164 3.127-27.558 11.517-37.752 8.393-10.197 20.684-17.195 34.876-18.573l.038-.004a51.382 51.382 0 0120.687 2.217l11.615-26.962a7.634 7.634 0 011.584-2.356 133.115 133.115 0 01-26.025-20.248c-13.761-13.761-24.507-30.533-31.168-49.243l-35.281 6.87a50.468 50.468 0 01-6.555 25.062l-.247.464c-6.994 12.113-18.244 20.252-30.761 23.605-12.513 3.351-26.324 1.926-38.449-5.076-12.114-6.993-20.25-18.237-23.607-30.76-3.306-12.351-1.954-25.969 4.829-37.986l.247-.463c6.995-12.117 18.241-20.252 30.76-23.607 12.515-3.353 26.326-1.922 38.449 5.077 11.397 6.581 19.275 16.925 22.962 28.557l33.354-6.497a132.867 132.867 0 01-3.341-29.692c0-34.436 13.141-65.803 34.675-89.363l-28.728-23.906a49.403 49.403 0 01-5.306 3.851c-10.593 6.659-23.725 9.276-36.867 6.281-13.174-3.006-23.881-11.061-30.535-21.651-6.649-10.581-9.272-23.695-6.288-36.826l.01-.043c3.007-13.173 11.058-23.879 21.648-30.532 10.58-6.65 23.696-9.269 36.823-6.289l.044.01c13.174 3.005 23.881 11.059 30.535 21.648 6.659 10.594 9.276 23.725 6.28 36.868a48.854 48.854 0 01-6.286 15.195l29.657 24.679c23.256-20.196 53.62-32.421 86.835-32.421 4.147 0 8.249.193 12.299.566l3.171-21.299a50.457 50.457 0 01-23.004-13.201c-9.894-9.894-14.846-22.867-14.846-35.836 0-12.969 4.952-25.942 14.846-35.836C263.844 4.952 276.817 0 289.786 0c12.971 0 25.944 4.952 35.838 14.846 9.894 9.894 14.844 22.867 14.844 35.836 0 12.969-4.95 25.942-14.844 35.836-9.28 9.28-21.27 14.211-33.426 14.786l-3.275 21.994c25.579 5.389 48.438 18.151 66.25 35.964a132.724 132.724 0 0127.661 40.413l27.962-10.561a51.577 51.577 0 01-1.752-19.409c1.412-14.2 8.434-26.475 18.643-34.838 10.202-8.357 23.613-12.822 37.804-11.414 14.2 1.412 26.475 8.434 34.838 18.643 8.357 10.201 12.822 23.613 11.414 37.804-1.412 14.199-8.434 26.475-18.643 34.838-10.204 8.359-23.613 12.822-37.804 11.412-14.199-1.412-26.475-8.433-34.838-18.641a51.934 51.934 0 01-3.271-4.462l-29.023 10.962c3.782 12.313 5.82 25.39 5.82 38.942 0 35.324-13.829 67.423-36.364 91.176l20.577 17.494c8.928-7.866 20.64-12.642 33.456-12.642 13.956 0 26.618 5.672 35.805 14.846l.049.05c9.162 9.186 14.828 21.838 14.828 35.786 0 13.971-5.674 26.633-14.844 35.805l-.031.031c-9.172 9.17-21.833 14.844-35.807 14.844zM230.67 286.398a9.673 9.673 0 01-.671 1.802 5.535 5.535 0 01-.948 1.369c-.266.268-.61.514-1.018.734-.376.203-.82.386-1.315.541l-12.946 3.945a.71.71 0 01-.836-1.011c.406-.777.796-1.436 1.153-1.968.377-.562.727-.999 1.057-1.318.347-.324.811-.645 1.382-.95l.715-.355-.466-.367a7.124 7.124 0 01-1.025-1.026 4.251 4.251 0 01-.68-1.091l-.017-.043a3.104 3.104 0 01-.232-1.145c0-.309.052-.649.147-1.004l.013-.042c.091-.337.223-.68.379-1.024l.608-1.072.742-1.029c1.346-1.791 2.698-3.145 4.044-4.05 1.41-.951 2.826-1.424 4.243-1.424.462 0 .897.083 1.289.24.398.16.751.407 1.058.724l.048.054c.27.319.479.678.616 1.074.141.405.215.846.215 1.323l-.078.998a4.237 4.237 0 01-.241.916l-.458.938-.707 1.233a.717.717 0 01-.93.27c-.96-.477-1.77-.836-2.417-1.072-.59-.214-1.031-.324-1.313-.324-.309 0-.608.04-.898.11a4.6 4.6 0 00-.925.349c-.271.168-.523.311-.769.506l.311.277c.454.372 1.146.824 2.057 1.347l.035.022c.884.5 1.667.884 2.325 1.145l.033.014c.597.231 1.062.347 1.385.347.49 0 1.881-.284 4.175-.844a.718.718 0 01.86.881zm.148-38.44c0 1.787-.113 3.527-.33 5.207a32.728 32.728 0 01-.975 4.796l-.014.046c-.44 1.513-1.081 3.272-1.908 5.255-.825 1.988-1.854 4.234-3.078 6.729a.722.722 0 01-.91.35l-3.64-1.482a.716.716 0 01-.427-.832c.482-2.54.851-4.846 1.095-6.903.237-2.037.363-3.866.363-5.471 0-1.259-.052-2.764-.149-4.496a235.962 235.962 0 00-.446-6.221l-.678-7.067a279.937 279.937 0 00-.836-6.989c-.3-2.324-.695-4.873-1.19-7.633a270.701 270.701 0 00-1.765-8.909l-.541-2.893c-.127-.815-.195-1.455-.195-1.897 0-.678.168-1.592.5-2.731.321-1.085.796-2.393 1.427-3.903l.016-.035a95.009 95.009 0 012.233-4.969 185.885 185.885 0 013.001-5.933.719.719 0 01.966-.3.709.709 0 01.376.541l3.654 21.322c.67 4.008 1.234 7.756 1.702 11.25.477 3.571.853 6.88 1.124 9.908.203 2.265.359 4.527.465 6.767.106 2.283.16 4.448.16 6.493zm11.749 35.17v-16.905c0-.394.32-.716.716-.716h16.903a.72.72 0 01.719.716v16.905a.72.72 0 01-.719.717h-16.903a.717.717 0 01-.716-.717zm66.832-16.926h-27.33c-2.813 0-5.009-.616-6.554-1.845-.959-.766-1.686-1.78-2.165-3.014-.465-1.204-.701-2.627-.701-4.249l.08-2.812.218-2.992.342-3.129.484-3.159a.718.718 0 01.707-.593l2.436-.12a.72.72 0 01.728.552c.141.614.365 1.147.668 1.586l.019.029c.294.423.665.769 1.113 1.035.492.28 1.041.502 1.635.647a8.564 8.564 0 001.996.218h19.807c-.438-2.578-1.017-4.929-1.734-7.033-.78-2.307-1.732-4.323-2.837-6.036a22.525 22.525 0 00-3.287-3.979 28.003 28.003 0 00-4.394-3.412.715.715 0 01-.301-.8l4.37-18.782a.715.715 0 01.858-.533l.268.123c2.645 1.995 4.914 4.28 6.789 6.845 1.875 2.565 3.376 5.427 4.477 8.566 1.01 2.877 1.771 6.232 2.271 10.046.502 3.813.755 8.07.755 12.749v19.375a.72.72 0 01-.718.717zm34.936-96.101c-21.201-21.201-50.497-34.319-82.851-34.319-32.353 0-61.648 13.116-82.85 34.317-21.2 21.202-34.316 50.496-34.316 82.852 0 32.354 13.116 61.65 34.316 82.85 21.202 21.201 50.495 34.316 82.85 34.316 32.356 0 61.65-13.115 82.853-34.316 21.2-21.202 34.316-50.496 34.316-82.85 0-32.356-13.116-61.65-34.318-82.85zM96.114 134.904a33.531 33.531 0 0025.372-4.303c7.285-4.577 12.824-11.928 14.882-20.955a33.522 33.522 0 00-4.303-25.372c-4.488-7.144-11.642-12.604-20.429-14.756a7.66 7.66 0 01-1.097-.249 33.529 33.529 0 00-24.801 4.425c-7.144 4.488-12.604 11.64-14.755 20.428a7.94 7.94 0 01-.249 1.097 33.525 33.525 0 004.425 24.802c4.577 7.285 11.928 12.824 20.955 14.883zM32.998 335.089c8.443 4.875 18.085 5.861 26.834 3.519 8.741-2.341 16.595-8.023 21.478-16.479l.216-.351c4.691-8.361 5.615-17.851 3.303-26.483-2.343-8.743-8.025-16.595-16.48-21.478-8.444-4.875-18.083-5.863-26.834-3.521-8.743 2.343-16.596 8.023-21.479 16.48l-.216.352c-4.691 8.361-5.614 17.851-3.303 26.482 2.343 8.744 8.025 16.596 16.481 21.479zM264.789 25.685c-6.901 6.901-10.354 15.951-10.354 24.997s3.453 18.097 10.354 24.998c6.901 6.9 15.951 10.351 24.997 10.351 9.048 0 18.099-3.451 24.999-10.351 6.901-6.901 10.352-15.952 10.352-24.998 0-9.046-3.451-18.096-10.352-24.997-6.9-6.901-15.951-10.354-24.999-10.354-9.046 0-18.096 3.453-24.997 10.354zM432.313 197.81c5.894 7.195 14.524 12.144 24.482 13.132 9.967.991 19.408-2.163 26.606-8.059 7.196-5.894 12.146-14.524 13.135-24.482.988-9.965-2.165-19.408-8.062-26.606-5.894-7.196-14.523-12.146-24.481-13.135-9.966-.989-19.409 2.165-26.607 8.062-7.196 5.894-12.146 14.523-13.135 24.481-.988 9.968 2.166 19.408 8.062 26.607zM141.776 473.395a36.23 36.23 0 0026.616 8.106c9.97-.965 18.61-5.892 24.514-13.065a36.23 36.23 0 008.16-26.002 7.836 7.836 0 01-.114-1.183c-1.097-9.729-5.97-18.153-13.003-23.945-7.031-5.785-16.233-8.944-26-8.16-.384.067-.78.106-1.182.114-9.732 1.097-18.158 5.968-23.95 13.006a36.247 36.247 0 00-8.106 26.615c.965 9.97 5.892 18.61 13.065 24.514zm244.88-48.737c6.395 6.395 15.234 10.352 24.997 10.352a35.292 35.292 0 0035.351-35.349c0-9.784-3.947-18.622-10.323-24.997l-.03-.031c-6.376-6.376-15.215-10.323-24.998-10.323a35.29 35.29 0 00-35.349 35.351 35.295 35.295 0 009.979 24.65l.373.347z"/></svg>