<svg viewBox="0 0 512 512" xmlns="http://www.w3.org/2000/svg" fill-rule="evenodd" clip-rule="evenodd" stroke-linejoin="round" stroke-miterlimit="2"><path d="M256 506C117.456 506 6 394.544 6 256 6 117.456 117.456 6 256 6c138.544 0 250 111.456 250 250 0 138.544-111.456 250-250 250zm0-98.956l18.75-18.75L256 316.419l-18.75 71.875 18.75 18.75zM232.044 406l-9.375 35.419 21.875-21.875-12.5-13.544zm47.912 0l-12.5 12.5 21.875 21.875L279.956 406zm17.713 64.581L256 428.92l-41.669 41.662c13.544 2.088 27.088 4.169 41.669 4.169 14.581 0 28.125-1.044 41.669-4.169zM256 37.25C135.169 37.25 37.25 135.169 37.25 256c0 95.831 61.456 177.081 146.875 206.25L231 288.294c-10.419-7.294-16.669-19.794-16.669-33.338 0-22.912 18.75-41.662 41.669-41.662 22.919 0 41.669 18.75 41.669 41.662 0 13.544-6.25 25-16.669 33.338l46.875 173.956C413.294 433.081 474.75 351.831 474.75 256c0-120.831-97.919-218.75-218.75-218.75zm142.706 327.081c-5.206 6.25-14.581 8.338-21.875 3.125-7.287-5.206-8.331-14.581-3.125-20.831 0 0 28.125-37.5 28.125-90.625s-28.125-90.625-28.125-90.625c-5.206-6.25-4.162-15.625 3.125-20.831 7.294-5.213 16.669-3.125 21.875 3.125 2.088 2.081 34.375 44.787 34.375 108.331 0 63.544-32.287 106.25-34.375 108.331zm-76.037-40.625c-6.25-6.25-5.213-17.706 1.037-23.956 0 0 15.625-16.669 15.625-43.75s-15.625-42.706-15.625-43.75c-6.25-6.25-6.25-16.669-1.037-23.956 6.25-7.294 15.625-7.294 21.875-1.044 1.037 1.044 26.037 27.081 26.037 68.75s-25 67.706-26.037 68.75c-6.25 6.25-15.625 5.206-21.875-1.044zm-133.338 0c-6.25 6.25-15.625 7.294-21.875 1.044-1.037-2.081-26.037-27.081-26.037-68.75s25-66.669 26.037-68.75c6.25-6.25 16.669-6.25 21.875 1.044 6.25 6.25 5.213 17.706-1.037 23.956 0 1.044-15.625 16.669-15.625 43.75s15.625 43.75 15.625 43.75c6.25 6.25 7.287 16.669 1.037 23.956zm-54.162 43.75c-7.294 5.213-16.669 3.125-21.875-3.125-2.088-2.081-34.375-44.787-34.375-108.331 0-63.544 32.287-106.25 34.375-108.331 5.206-6.25 14.581-8.338 21.875-3.125 7.287 5.206 8.331 14.581 3.125 20.831 0 0-28.125 37.5-28.125 90.625s28.125 90.625 28.125 90.625c5.206 6.25 3.125 15.625-3.125 20.831z" fill="#fc7e0f"/></svg>