<svg viewBox="0 0 512 512" xmlns="http://www.w3.org/2000/svg" fill-rule="evenodd" clip-rule="evenodd" stroke-linejoin="round" stroke-miterlimit="2"><path d="M351.017 485.944c-9.087-.913-17.886-3.486-26.444-7.728-5.443-2.694-7.575-3.932-46.694-27.08l-25.326-14.987-34.098 19.04c-36.41 20.333-39.902 22.174-46.035 24.31-7.687 2.676-12.007 3.422-21.516 3.724-7.788.245-9.847.13-15.433-.858-14.418-2.55-27.816-7.997-38.748-15.762-5.516-3.922-15.178-14.14-18.933-20.019a90.839 90.839 0 01-14.348-53.443c.167-3.848.45-7.877.626-8.939.273-1.608.166-1.993-.612-2.271-3.83-1.368-11.28-4.947-15.67-7.524-6.912-4.057-11.14-7.376-17.404-13.677-19.443-19.517-27.598-44.375-23.235-70.8 2.36-14.312 7.506-27.26 15.048-37.867 3.635-5.104 11.382-12.98 16.504-16.782 3.723-2.754 39.93-25.123 61.446-37.955l8.66-5.17-.348-41.492c-.38-45.224-.278-47.912 2.258-58.135 3.63-14.608 10.927-27.139 22.79-39.128 14.01-14.167 28.025-21.9 45.178-24.946 8.683-1.544 23.774-1.187 32.494.765 13.764 3.083 27.102 9.263 38.942 18.039l3.357 2.485 4.89-3.793c13.167-10.213 26.04-16.073 41.864-19.067 7.927-1.498 23.55-1.642 30.55-.279 17.478 3.403 32.059 11.59 45.34 25.466 13.306 13.899 20.835 28.646 23.992 46.986 1.103 6.425 1.145 15.437.25 58.228-.435 20.894-.533 34.301-.245 34.584.82.835 14.955 9.212 37.82 22.42 34.422 19.884 36.36 21.186 45.03 30.24 11.116 11.609 18.409 26.277 21.793 43.843 1.53 7.941 1.67 23.287.278 30.018-2.888 13.908-8.493 25.484-18.085 37.357-9.457 11.706-23.727 21.863-38.298 27.269l-4.497 1.669-.092 13.435c-.098 14.742-.603 18.534-3.871 29.193-5.086 16.573-16.092 32.438-29.133 41.997-5.795 4.247-15.873 9.379-23.467 11.947-12.833 4.344-24.794 5.874-36.578 4.692v-.005zm20.51-54.63c8.734-3.06 14.39-8.832 18.186-18.582 1.697-4.339 2.087-11.186.928-15.961-2.94-12.017-8.299-16.333-51.733-41.632-39.99-23.29-41.307-24.13-45.976-29.239-4.974-5.442-6.953-10.375-6.953-17.343 0-5.317 1.39-9.819 4.529-14.7 3.083-4.79 5.66-7.173 10.199-9.43 4.803-2.388 9.615-3.185 14.603-2.42 8.141 1.251 8.169 1.265 52.063 26.56 17.987 10.365 34.426 19.614 36.531 20.55 6.783 3.019 13.802 4.59 20.644 4.613 5.735.019 6.134-.046 9.393-1.65 6.425-3.162 13.639-11.928 15.864-19.272 2.1-6.954 1.771-14.858-.862-20.648-2.365-5.207-7.993-10.46-18.294-17.08-4.237-2.72-38.293-22.753-60.282-35.45-18.034-10.418-21.056-12.889-24.26-19.908-3.393-7.422-3.37-6.921-2.86-53.675.25-23.013.292-45.224.093-49.36-.654-13.426-2.583-19.364-8.178-25.178-11.08-11.506-32.123-12.132-42.619-1.275-4.858 5.03-7.7 11.136-9.652 20.746-.932 4.595-1.03 7.988-1.47 50.31-.361 34.886-.635 46.406-1.182 49.79-1.887 11.73-9.981 20.76-20.723 23.13-16.365 3.602-30.959-6.407-33.74-23.152-.631-3.793-.673-10.274-.316-45.382.232-22.522.246-44.46.037-48.752-.672-13.723-2.55-19.573-8.182-25.42-11.08-11.501-32.123-12.132-42.619-1.27-4.849 5.021-7.677 11.094-9.661 20.746-.955 4.655-1.034 7.53-1.391 51.608-.255 31.177-.566 47.487-.936 49.11-2.203 9.619-7.228 16.652-15.438 21.612l-17.089 10.33c-7.552 4.566-21.371 12.795-30.708 18.293-24.585 14.464-30.969 18.771-35.54 23.959-3.908 4.436-5.809 10.004-5.818 17.06-.01 7.932 3.468 15.855 9.796 22.322 7.621 7.794 16.624 8.846 32.062 3.75 6.203-2.048 11.549-4.872 31.46-16.628 19.763-11.67 23.083-13.588 38.233-22.128 11.354-6.398 14.77-7.844 20.649-8.73 10.37-1.557 19.114 2.495 25.094 11.628 3.617 5.521 4.836 9.828 4.572 16.128-.177 4.2-.427 5.271-2.04 8.809-1.943 4.237-5.934 9.119-9.61 11.747-3.084 2.198-10.492 6.537-35.953 21.02-28.41 16.165-34.747 19.948-42.197 25.182-9.119 6.412-12.647 10.802-14.742 18.34-1.307 4.687-.835 12.995.969 17.158 2.92 6.736 9.439 13.732 15.521 16.648 3.292 1.576 7.928 2.8 10.617 2.8 5.122 0 14.955-3.018 22.345-6.861 5.216-2.721 25.336-13.982 48.432-27.111 29.017-16.495 30.041-16.945 38.451-16.996 8.373-.056 13.51 1.799 26.963 9.736 63.55 37.458 70.699 41.353 78.307 42.771 4.265.793 10.13.297 14.487-1.224h-.005z" fill="#005ebd" fill-rule="nonzero"/></svg>